<svg width="246" height="204" viewBox="0 0 246 204" fill="none" xmlns="http://www.w3.org/2000/svg">
<mask id="mask0_14_8784" style="mask-type:luminance" maskUnits="userSpaceOnUse" x="11" y="0" width="223" height="92">
<path d="M233.688 0H11.6699V91.0251H233.688V0Z" fill="white"/>
</mask>
<g mask="url(#mask0_14_8784)">
<path fill-rule="evenodd" clip-rule="evenodd" d="M127.695 11.3392C164.793 13.7558 194.632 42.7549 198.351 79.4752H198.334C194.469 44.0746 164.476 16.5323 128.047 16.5323C91.6178 16.5323 61.6331 44.0746 57.7683 79.4752H47.0136C50.7327 42.7549 80.5717 13.7558 117.669 11.3392C117.241 8.297 115.784 5.58047 113.641 3.57521C116.007 1.35571 119.186 -0.00683594 122.682 -0.00683594C126.179 -0.00683594 129.366 1.35571 131.723 3.57521C129.589 5.58904 128.124 8.297 127.695 11.3392ZM12.6499 82.286H232.723C233.194 82.286 233.58 82.6716 233.58 83.1429V84.2398C233.58 84.7111 233.194 85.0968 232.723 85.0968H201.95C201.479 85.0968 201.093 85.4824 201.093 85.9537V89.8614C201.093 90.3327 200.707 90.7184 200.236 90.7184H45.1283C44.657 90.7184 44.2713 90.3327 44.2713 89.8614V85.9537C44.2713 85.4824 43.8857 85.0968 43.4144 85.0968H12.6499C12.1786 85.0968 11.793 84.7111 11.793 84.2398V83.1429C11.793 82.6716 12.1786 82.286 12.6499 82.286Z" fill="#C41E1E"/>
</g>
<path d="M15.3798 182.002C12.1044 182.002 9.30974 181.272 6.99565 179.812C4.71717 178.317 2.97271 176.288 1.76226 173.724C0.587421 171.161 0 168.26 0 165.02V118.774C0 115.57 0.605222 112.686 1.81567 110.123C3.06171 107.559 4.84178 105.53 7.15586 104.035C9.46994 102.54 12.2112 101.792 15.3798 101.792C17.765 101.792 19.9011 102.237 21.788 103.127C23.6749 104.017 25.2769 105.245 26.5942 106.812C27.947 108.343 28.9794 110.14 29.6915 112.205C30.4035 114.235 30.7595 116.424 30.7595 118.774V129.561H19.9723V118.774C19.9723 117.136 19.6341 115.765 18.9577 114.662C18.2813 113.558 17.1598 113.006 15.5934 113.006C14.1693 113.006 13.1369 113.576 12.4961 114.715C11.8552 115.855 11.5348 117.207 11.5348 118.774V165.02C11.5348 166.586 11.873 167.939 12.5495 169.078C13.2615 170.218 14.2761 170.787 15.5934 170.787C17.1954 170.787 18.3169 170.235 18.9577 169.132C19.6341 168.028 19.9723 166.658 19.9723 165.02V154.233H30.7595V165.02C30.7595 168.224 30.1365 171.108 28.8904 173.671C27.6444 176.234 25.8643 178.264 23.5503 179.759C21.2718 181.254 18.5483 182.002 15.3798 182.002Z" fill="#252525"/>
<path d="M36.4093 181.147L48.2645 102.646H62.3626L74.2178 181.147H63.0034L60.8674 165.127H49.7598L47.6237 181.147H36.4093ZM51.3618 152.951H59.2653L55.9544 126.57L55.634 122.405H54.9931L54.6727 126.57L51.3618 152.951Z" fill="#252525"/>
<path d="M82.6946 181.147V114.502H71.8006V102.646H105.123V114.502H94.2294V181.147H82.6946Z" fill="#252525"/>
<path d="M110.467 181.147V102.646H136.847V114.502H122.002V135.649H132.682V147.184H122.002V169.292H136.847V181.147H110.467Z" fill="#252525"/>
<path d="M145.408 181.147V102.646H156.942C163.849 102.646 168.94 104.569 172.215 108.414C175.491 112.223 177.128 117.848 177.128 125.289C177.128 129.703 176.345 133.531 174.779 136.77C173.248 139.974 171.379 142.324 169.171 143.819L177.022 181.147H165.487L158.972 148.038H156.942V181.147H145.408ZM156.942 137.358C159.079 137.358 160.77 136.895 162.016 135.969C163.262 135.008 164.152 133.655 164.686 131.911C165.22 130.166 165.487 128.101 165.487 125.716C165.487 121.978 164.864 119.112 163.618 117.118C162.407 115.089 160.182 114.074 156.942 114.074V137.358Z" fill="#252525"/>
<path d="M183.582 181.147V102.646H195.116V170.467H210.389V181.147H183.582Z" fill="#252525"/>
<path d="M222.073 181.147V147.718L210.324 102.646H221.646L227.306 127.745L227.68 131.163H228L228.374 127.745L234.035 102.646H245.356L233.608 147.718V181.147H222.073Z" fill="#252525"/>
<path d="M18.71 203.77V195.699H23.7944V196.898H19.9551V202.57H23.7944V203.77H18.71ZM19.2749 200.23V199.031H23.1603V200.23H19.2749Z" fill="#252525"/>
<path d="M34.0707 203.77L31.5688 200.149L28.3636 195.699H29.9432L32.3874 199.273L35.6502 203.77H34.0707ZM28.306 203.77L31.3844 199.377L32.1568 200.288L29.7702 203.77H28.306ZM32.5719 200.022L31.8109 199.146L34.0707 195.699H35.5349L32.5719 200.022Z" fill="#252525"/>
<path d="M43.4238 203.885C42.8627 203.885 42.3477 203.785 41.8788 203.585C41.41 203.385 41.0026 203.101 40.6567 202.732C40.3108 202.355 40.0418 201.913 39.8496 201.406C39.6652 200.899 39.5729 200.341 39.5729 199.734C39.5729 199.158 39.6729 198.624 39.8727 198.132C40.0802 197.632 40.3646 197.194 40.7259 196.817C41.0871 196.441 41.506 196.149 41.9826 195.941C42.4591 195.734 42.9741 195.63 43.5275 195.63C43.9195 195.63 44.3 195.691 44.6689 195.814C45.0456 195.93 45.3838 196.095 45.6835 196.31C45.991 196.518 46.2408 196.756 46.4329 197.025L45.6028 197.89C45.3799 197.667 45.1532 197.482 44.9226 197.336C44.6997 197.182 44.4691 197.067 44.2308 196.99C44.0002 196.913 43.7658 196.875 43.5275 196.875C43.1509 196.875 42.7973 196.948 42.4668 197.094C42.144 197.232 41.8596 197.428 41.6136 197.682C41.3754 197.936 41.1871 198.239 41.0487 198.593C40.9104 198.939 40.8412 199.319 40.8412 199.734C40.8412 200.172 40.9065 200.572 41.0372 200.933C41.1755 201.287 41.3677 201.59 41.6136 201.844C41.8596 202.098 42.1517 202.294 42.4899 202.432C42.8358 202.563 43.2162 202.628 43.6313 202.628C43.8849 202.628 44.1347 202.594 44.3807 202.524C44.6267 202.455 44.8573 202.355 45.0725 202.225C45.2877 202.094 45.4837 201.94 45.6605 201.763L46.2831 202.778C46.1063 202.986 45.8642 203.174 45.5567 203.343C45.2569 203.512 44.9187 203.647 44.5421 203.746C44.1732 203.839 43.8004 203.885 43.4238 203.885Z" fill="#252525"/>
<path d="M51.6006 203.77V195.699H56.6851V196.898H52.8458V202.57H56.6851V203.77H51.6006ZM52.1655 200.23V199.031H56.0509V200.23H52.1655Z" fill="#252525"/>
<path d="M62.04 203.77V195.699H63.2852V202.57H67.0669V203.77H62.04Z" fill="#252525"/>
<path d="M72.2588 203.77V195.699H73.504V202.57H77.2856V203.77H72.2588Z" fill="#252525"/>
<path d="M82.4678 203.77V195.699H87.5522V196.898H83.7129V202.57H87.5522V203.77H82.4678ZM83.0327 200.23V199.031H86.9181V200.23H83.0327Z" fill="#252525"/>
<path d="M92.9072 203.77V195.699H94.0256L98.9602 202.305L98.7757 202.409C98.7449 202.217 98.718 202.009 98.695 201.786C98.6719 201.556 98.6489 201.314 98.6258 201.06C98.6104 200.799 98.5951 200.526 98.5797 200.242C98.572 199.949 98.5643 199.646 98.5566 199.331C98.5489 199.016 98.5451 198.689 98.5451 198.351V195.699H99.7903V203.77H98.6489L93.795 197.405L93.9218 197.244C93.9602 197.713 93.991 198.112 94.014 198.443C94.0448 198.766 94.0679 199.042 94.0832 199.273C94.1063 199.496 94.1217 199.68 94.1293 199.826C94.137 199.965 94.1409 200.08 94.1409 200.172C94.1486 200.265 94.1524 200.345 94.1524 200.414V203.77H92.9072Z" fill="#252525"/>
<path d="M109.385 203.885C108.824 203.885 108.309 203.785 107.84 203.585C107.371 203.385 106.964 203.101 106.618 202.732C106.272 202.355 106.003 201.913 105.811 201.406C105.626 200.899 105.534 200.341 105.534 199.734C105.534 199.158 105.634 198.624 105.834 198.132C106.041 197.632 106.326 197.194 106.687 196.817C107.048 196.441 107.467 196.149 107.944 195.941C108.42 195.734 108.935 195.63 109.488 195.63C109.88 195.63 110.261 195.691 110.63 195.814C111.007 195.93 111.345 196.095 111.644 196.31C111.952 196.518 112.202 196.756 112.394 197.025L111.564 197.89C111.341 197.667 111.114 197.482 110.884 197.336C110.661 197.182 110.43 197.067 110.192 196.99C109.961 196.913 109.727 196.875 109.488 196.875C109.112 196.875 108.758 196.948 108.428 197.094C108.105 197.232 107.821 197.428 107.575 197.682C107.336 197.936 107.148 198.239 107.01 198.593C106.871 198.939 106.802 199.319 106.802 199.734C106.802 200.172 106.867 200.572 106.998 200.933C107.136 201.287 107.329 201.59 107.575 201.844C107.821 202.098 108.113 202.294 108.451 202.432C108.797 202.563 109.177 202.628 109.592 202.628C109.846 202.628 110.096 202.594 110.342 202.524C110.588 202.455 110.818 202.355 111.033 202.225C111.249 202.094 111.445 201.94 111.621 201.763L112.244 202.778C112.067 202.986 111.825 203.174 111.518 203.343C111.218 203.512 110.88 203.647 110.503 203.746C110.134 203.839 109.761 203.885 109.385 203.885Z" fill="#252525"/>
<path d="M117.563 203.77V195.699H122.648V196.898H118.809V202.57H122.648V203.77H117.563ZM118.128 200.23V199.031H122.014V200.23H118.128Z" fill="#252525"/>
<path d="M133.292 203.77V195.699H138.376V196.898H134.537V202.57H138.376V203.77H133.292ZM133.857 200.23V199.031H137.742V200.23H133.857Z" fill="#252525"/>
<path d="M146.099 203.77L142.87 195.699H144.289L146.214 200.599C146.306 200.837 146.387 201.052 146.456 201.245C146.533 201.437 146.598 201.614 146.652 201.775C146.706 201.929 146.756 202.075 146.802 202.213C146.848 202.351 146.894 202.49 146.94 202.628L146.641 202.64C146.694 202.455 146.752 202.263 146.814 202.063C146.875 201.863 146.944 201.644 147.021 201.406C147.106 201.168 147.206 200.899 147.321 200.599L149.108 195.699H150.561L147.309 203.77H146.099Z" fill="#252525"/>
<path d="M155.743 203.77V195.699H160.828V196.898H156.988V202.57H160.828V203.77H155.743ZM156.308 200.23V199.031H160.194V200.23H156.308Z" fill="#252525"/>
<path d="M166.175 203.77V195.699H169.611C170.072 195.699 170.494 195.814 170.879 196.045C171.271 196.268 171.582 196.575 171.813 196.967C172.043 197.351 172.159 197.786 172.159 198.27C172.159 198.708 172.043 199.115 171.813 199.492C171.582 199.869 171.275 200.172 170.89 200.403C170.506 200.626 170.079 200.737 169.611 200.737H167.42V203.77H166.175ZM170.971 203.77L168.919 200.126L170.199 199.838L172.481 203.781L170.971 203.77ZM167.42 199.538H169.726C169.949 199.538 170.149 199.484 170.325 199.377C170.502 199.262 170.641 199.108 170.74 198.916C170.84 198.716 170.89 198.497 170.89 198.258C170.89 197.989 170.825 197.755 170.694 197.555C170.571 197.348 170.395 197.186 170.164 197.071C169.941 196.956 169.687 196.898 169.403 196.898H167.42V199.538Z" fill="#252525"/>
<path d="M179.268 203.77V199.746L179.349 200.311L176.086 195.699H177.585L180.075 199.273L179.787 199.238L182.035 195.699H183.465L180.34 200.438L180.513 199.654V203.77H179.268Z" fill="#252525"/>
<path d="M189.945 203.77V196.898H187.685V195.699H193.519V196.898H191.19V203.77H189.945Z" fill="#252525"/>
<path d="M197.959 203.77V202.617H199.262V196.852H197.959V195.699H201.81V196.852H200.507V202.617H201.81V203.77H197.959Z" fill="#252525"/>
<path d="M206.608 203.77V195.699H207.831L210.771 200.484L210.183 200.472L213.157 195.699H214.31V203.77H213.065V200.461C213.065 199.769 213.08 199.146 213.111 198.593C213.149 198.039 213.211 197.49 213.295 196.944L213.457 197.371L210.817 201.452H210.056L207.496 197.417L207.623 196.944C207.708 197.459 207.765 197.989 207.796 198.535C207.834 199.073 207.854 199.715 207.854 200.461V203.77H206.608Z" fill="#252525"/>
<path d="M220.907 203.77V195.699H225.992V196.898H222.152V202.57H225.992V203.77H220.907ZM221.472 200.23V199.031H225.358V200.23H221.472Z" fill="#252525"/>
</svg>
